HIERARCHY
ROOT Spine
{
    OFFSET 0.0 0.0 -0.0
    CHANNELS 6 Xposition Yposition Zposition Zrotation Xrotation Yrotation
    JOINT ShoulderCenter
    {
        OFFSET 0.0 31.423189163208008 0.0
        CHANNELS 3 Zrotation Xrotation Yrotation
        JOINT LeftShoulder
        {
            OFFSET 16.945829391479492 0.0 0.0
            CHANNELS 3 Zrotation Xrotation Yrotation
            JOINT LeftElbow
            {
                OFFSET 30.426681518554688 0.0 0.0
                CHANNELS 3 Zrotation Xrotation Yrotation
                JOINT LeftHand
                {
                    OFFSET 28.211166381835938 0.0 0.0
                    CHANNELS 3 Zrotation Xrotation Yrotation
                    End Site
                    {
                        OFFSET 11.284467697143555 0.0 0.0
                    }
                }
            }
        }
        JOINT RightShoulder
        {
            OFFSET -16.945829391479492 0.0 0.0
            CHANNELS 3 Zrotation Xrotation Yrotation
            JOINT RightElbow
            {
                OFFSET -30.426681518554688 0.0 0.0
                CHANNELS 3 Zrotation Xrotation Yrotation
                JOINT RightHand
                {
                    OFFSET -28.211166381835938 0.0 0.0
                    CHANNELS 3 Zrotation Xrotation Yrotation
                    End Site
                    {
                        OFFSET -11.284467697143555 0.0 0.0
                    }
                }
            }
        }
        End Site
        {
            OFFSET 0.0 12.569276809692383 0.0
        }
    }
    JOINT LeftHip
    {
        OFFSET 16.084916522201834 -16.084916522201834 0.0
        CHANNELS 3 Zrotation Xrotation Yrotation
        JOINT LeftKnee
        {
            OFFSET 0.0 -35.00017547607422 0.0
            CHANNELS 3 Zrotation Xrotation Yrotation
            JOINT LeftFoot
            {
                OFFSET 0.0 -49.2930908203125 0.0
                CHANNELS 3 Zrotation Xrotation Yrotation
                End Site
                {
                    OFFSET 0.0 0.0 19.717235565185547
                }
            }
        }
    }
    JOINT RightHip
    {
        OFFSET -16.084916522201834 -16.084916522201834 0.0
        CHANNELS 3 Zrotation Xrotation Yrotation
        JOINT RightKnee
        {
            OFFSET 0.0 -35.00017547607422 0.0
            CHANNELS 3 Zrotation Xrotation Yrotation
            JOINT RightFoot
            {
                OFFSET 0.0 -49.2930908203125 0.0
                CHANNELS 3 Zrotation Xrotation Yrotation
                End Site
                {
                    OFFSET 0.0 0.0 19.717235565185547
                }
            }
        }
    }
}
MOTION
Frames: 9
Frame Time: 0.03333333333333333
42.29999923706055 -79.0999984741211 159.09999084472656 -14.645253368428463 20.853641763102107 -146.3325838391768 6.54158894083518e-07 -1.2341316213838713e-07 16.353254772239854 126.74130883813278 16.48175122922329 128.2221063369219 -2.271854218378703e-06 -3.0091093140609146e-06 35.10162883352449 -6.3611093629270335e-15 -3.531125038440127e-31 6.3611093629270335e-15 -106.02842792181177 1.8815079507256913 -131.13709959208487 -2.4477795897125593e-06 2.2598061596018098e-07 -31.526346136866845 0.0 0.0 0.0 174.84069927298077 -65.559434583893 -127.06973962749613 91.37508262264923 26.84410321730478 -122.77248333771642 -3.776908684237926e-15 6.3611093629270335e-15 2.0966054915738252e-31 164.92601557868022 -68.07576057676917 113.06282783084569 -92.78314999823576 30.62437864825507 123.68504722790303 0.0 0.0 -1.9878466759146976e-15
42.0 -79.19999694824219 158.39999389648438 -15.306141695028531 21.265789629304884 -145.7477898995086 -8.489087159168995e-07 5.550872458128105e-07 16.073942188539643 127.62009605139778 16.283198697481996 127.35646675225522 -1.2739422283627076e-06 -3.397490797051838e-06 35.18065668321886 0.0 0.0 6.3611093629270335e-15 -105.6086409833575 1.1546661460143917 -129.38815760889324 -3.1748039558214925e-06 -2.249893087032711e-06 -32.83239347868707 -6.3611093629270335e-15 -1.5902773407317584e-15 -8.827812596100317e-32 175.2001289382996 -66.27335553851816 -126.22811062272929 92.1896886959357 26.30099249847274 -125.99928448868373 1.6399735076296259e-15 -2.275920434932113e-32 -1.5902773407317584e-15 164.08240675841887 -68.7681545817933 113.4318875794628 -94.19520345410561 31.443300891394824 126.83420673891256 3.1805546814635164e-15 1.5448672043175555e-31 5.5659706925611536e-15
41.80000305175781 -79.29999542236328 157.6999969482422 -15.597176697447479 21.71261440301277 -144.84938614558757 -1.9156546086258342e-07 -6.129057059608364e-07 15.171271442750916 128.4734760841504 15.668978748474597 126.08568439949026 -1.2331920520850655e-06 1.3464661567221076e-06 36.21648813797268 0.0 0.0 0.0 -104.92332843982157 0.22475076253976795 -128.06715037658145 -6.947888413996049e-07 4.276748717426333e-06 -33.6948631052356 -1.2722218725854067e-14 -3.1805546814635168e-15 3.1805546814635164e-15 177.337207772445 -66.78445366078337 -124.19106872493188 93.09312105243016 25.914248054257193 -128.7974374730372 1.987846675914698e-16 0.0 0.0 166.05919336624765 -69.22510550762607 115.38658881665616 -95.90898943089127 31.400689515788436 131.0867939129992 0.0 0.0 1.1927080055488186e-15
41.60000228881836 -79.4000015258789 156.8000030517578 -16.02586423878937 22.57807995543837 -144.16021607172408 1.3700336688624032e-06 -1.0185796512030644e-06 15.056891138823001 129.51065357520153 14.142336369808211 125.13399470388583 2.850202232732994e-06 -5.935982170967907e-06 36.816464749072296 0.0 0.0 -6.3611093629270335e-15 -103.95909649532786 0.061901328577791175 -126.19158303974514 -6.475906728976097e-07 1.10556184021028e-06 -34.47008466761864 -1.3241718894150476e-31 4.770832022195275e-15 3.1805546814635168e-15 178.70277881301365 -67.62893389679938 -123.32976248407759 94.2403016630296 25.768829254069644 -131.33386390018305 4.47265502080807e-15 0.0 0.0 166.60727141928803 -69.70205824816586 115.94624262806107 -97.59772715917316 31.668984204886584 133.33198958442006 0.0 0.0 0.0
41.5 -79.4000015258789 155.89999389648438 -16.378421931156943 23.42644603854287 -144.10845536624024 5.885275614710038e-07 1.1331287887544667e-06 15.210712164881611 129.98260167266017 12.342258133410528 123.98590942437589 4.3372252963869245e-07 1.0671142031229457e-07 37.73594613538989 0.0 0.0 0.0 -103.29172778047244 0.007964697265515044 -124.31562394484335 9.731368136635259e-07 2.2917770477606166e-06 -35.67627225690106 -3.972515668245143e-31 4.770832022195275e-15 9.54166404439055e-15 178.35846796145938 -67.89172559723073 -123.97585357468253 95.78754083181371 25.383171854783352 -133.6772679883983 -7.951386703658792e-16 2.2069531490250793e-32 -3.1805546814635168e-15 165.63422920829382 -69.97569934971102 114.54654318923568 -99.01036978155277 31.536171368284542 134.8204426881132 -3.1805546814635164e-15 2.2069531490250793e-32 -7.951386703658791e-16
41.10000228881836 -79.5999984741211 155.3000030517578 -17.377486322074454 23.22502859693683 -143.51248782466632 1.0839287553269375e-07 3.721938652994296e-06 15.073975145509584 130.15219149742532 11.810969356075562 122.71205604299705 9.554695866102438e-07 -3.5455689711600904e-07 38.529131121274965 0.0 0.0 6.361109362927032e-15 -103.6105945556746 -0.361385145923523 -122.45815031464207 -2.214507676035827e-06 1.5742234293895037e-06 -36.93119080158192 6.3611093629270335e-15 -1.590277340731758e-15 6.3611093629270335e-15 177.88322517501706 -67.77502187727379 -123.19123503035098 97.02972770873157 24.637376414589355 -136.2993092112036 -1.9878466759146985e-16 -3.1805546814635168e-15 -1.5902773407317584e-15 164.54859882794216 -69.93506275597143 115.08018300658729 -100.3084876025896 32.26469577361255 135.57269895867077 -3.972515668245143e-31 -6.3611093629270335e-15 -7.156248033292914e-15
41.0 -79.79999542236328 154.60000610351562 -17.43643825281665 23.459518489200818 -143.19715622963886 -1.3357236981580872e-06 -2.440791523282852e-07 14.889835613927298 130.45404919659774 10.407211726865787 121.825898060672 6.14333383350481e-07 -1.1720599984760108e-07 39.42659589636839 0.0 0.0 0.0 -102.66364200528672 -0.7948160418035933 -120.97475662014028 1.3274350787648447e-06 3.5757949085846407e-06 -38.18010019139689 6.3611093629270335e-15 3.1805546814635168e-15 3.1805546814635168e-15 178.5878604830681 -67.39851232472967 -122.41665328202427 98.1495388172071 24.028436410684808 -137.81642695019573 -3.9756933518293955e-16 5.517382872562698e-33 -1.5902773407317582e-15 164.26630832562583 -69.57636088687356 114.94741679405813 -101.5429563810223 32.23038772181543 136.49902939615694 0.0 0.0 -3.1805546814635176e-15
41.10000228881836 -80.0999984741211 153.8000030517578 -17.117306215683335 23.9041283885276 -143.14613978573482 5.21440114096356e-07 -1.1564562456053745e-06 14.9688944891279 131.3400216693292 9.20556999310103 121.23156099491177 3.482923416282381e-06 3.9956984506587337e-07 40.25399136136545 6.3611093629270335e-15 -3.531125038440127e-31 -6.3611093629270335e-15 -101.99466854826642 -0.4847062203177803 -119.46144382903321 -1.2947033876265077e-06 -9.361404306108104e-06 -39.73688699577183 -6.361109362927035e-15 3.1805546814635176e-15 1.7655625192200634e-31 -179.87295201647694 -66.93851107520439 -122.28787710905395 99.10038085840458 24.32684255425584 -137.56128963299773 7.951386703658792e-16 3.1805546814635164e-15 -1.5902773407317582e-15 164.7422668697605 -68.9184253573132 114.17952135871678 -102.84442864915033 31.421981623318295 137.94191242936344 -3.1805546814635164e-15 3.1805546814635168e-15 -6.7586786981099735e-15
41.20000076293945 -80.5 153.10000610351562 -16.299907710879292 24.08393162340141 -142.86339367989666 -4.519130071306056e-07 2.2400582290624713e-07 14.267380998002318 132.10388042299957 8.132785351701125 120.79701779666667 -6.965404885173113e-07 -1.825023252044154e-06 40.784095159633814 0.0 0.0 0.0 -101.03017932399517 -0.5049977385253125 -118.75942272616493 3.3818864621270194e-07 1.1575315570588232e-06 -40.58305778539098 -4.4139062980501586e-32 -1.5902773407317584e-15 -3.1805546814635168e-15 -177.21648226455534 -65.96652410845734 -120.83716297273864 99.67151913591997 24.209266882896465 -136.91143795202242 3.1805546814635168e-15 -4.4139062980501586e-32 -1.5902773407317584e-15 166.7683015218406 -67.62005118444463 114.84811084672499 -104.16699842399093 30.71258728241928 139.09826293426985 2.3173008064763334e-31 3.1805546814635164e-15 -8.34895603884173e-15
